<?xml version="1.0" encoding="UTF-8" standalone="no"?>
<svg
   xmlns:dc="http://purl.org/dc/elements/1.1/"
   xmlns:cc="http://creativecommons.org/ns#"
   xmlns:rdf="http://www.w3.org/1999/02/22-rdf-syntax-ns#"
   xmlns:svg="http://www.w3.org/2000/svg"
   xmlns="http://www.w3.org/2000/svg"
   xmlns:sodipodi="http://sodipodi.sourceforge.net/DTD/sodipodi-0.dtd"
   xmlns:inkscape="http://www.inkscape.org/namespaces/inkscape"
   id="svg8"
   version="1.1"
   viewBox="0 0 63.122528 42.101059"
   height="42.101059mm"
   width="63.122528mm"
   sodipodi:docname="best.svg"
   inkscape:version="0.92.2 2405546, 2018-03-11">
  <sodipodi:namedview
     pagecolor="#ffffff"
     bordercolor="#666666"
     borderopacity="1"
     objecttolerance="10"
     gridtolerance="10"
     guidetolerance="10"
     inkscape:pageopacity="0"
     inkscape:pageshadow="2"
     inkscape:window-width="1918"
     inkscape:window-height="1060"
     id="namedview9"
     showgrid="false"
     inkscape:zoom="1.4125636"
     inkscape:cx="120.70253"
     inkscape:cy="79.561056"
     inkscape:window-x="0"
     inkscape:window-y="18"
     inkscape:window-maximized="0"
     inkscape:current-layer="svg8" />
  <defs
     id="defs2" />
  <metadata
     id="metadata5">
    <rdf:RDF>
      <cc:Work
         rdf:about="">
        <dc:format>image/svg+xml</dc:format>
        <dc:type
           rdf:resource="http://purl.org/dc/dcmitype/StillImage" />
        <dc:title></dc:title>
      </cc:Work>
    </rdf:RDF>
  </metadata>
  <rect
     style="opacity:1;fill:#fffffa;fill-opacity:1;fill-rule:evenodd;stroke:none;stroke-width:0.66099995;stroke-linecap:butt;stroke-linejoin:bevel;stroke-miterlimit:4;stroke-dasharray:none;stroke-dashoffset:0;stroke-opacity:1;paint-order:normal"
     id="rect900"
     width="61.506641"
     height="40.527634"
     x="0.76287323"
     y="0.71519572" />
  <path
     style="fill:#000000;stroke-width:0.29203346"
     d="m 0.360279,41.728417 c -0.638029,-1.39809 -0.207275,-3.05577 -0.333643,-4.57348 0.01649,-12.01868 -0.03293,-24.03963 0.0247,-36.0569 0.452217,-1.624709 2.432318,-0.919171 3.683343,-1.074854 h 57.937567 c 1.913102,-0.02714 1.350834,2.155284 1.43362,3.404783 -0.01739,12.547061 0.03472,25.096231 -0.02606,37.641971 -0.365864,1.55925 -2.350334,0.83898 -3.530348,1.00606 H 1.460263 c -0.386096,-0.007 -0.802628,-0.0755 -1.099976,-0.34758 z m 61.227012,-1.17099 c 0.516815,-7.08233 0.306632,-14.2094 0.378488,-21.31066 -0.08393,-5.89967 0.09476,-11.82382 -0.378488,-17.705014 C 52.988696,1.067164 44.354273,1.24841 35.740157,1.163812 24.414252,1.206002 13.079303,1.060282 1.760737,1.495581 0.990174,3.588125 1.431342,6.429947 1.243252,8.834657 c -0.07967,10.401 -0.216996,20.81232 0.212901,31.20668 1.642878,1.41501 5.221843,0.37411 7.598011,0.77674 17.131726,0.14787 34.269678,0.24719 51.398301,-0.1508 0.377693,-0.0328 0.765987,-0.008 1.134826,-0.10985 z"
     id="path896"
     inkscape:connector-curvature="0"
     sodipodi:nodetypes="ccccccccccccccccccccc" />
  <path
     style="fill:#000000;stroke-width:0.05314638"
     d="m 49.138806,34.842233 c -0.835298,-0.651095 -1.098473,-0.243654 -1.342955,-0.412331 -0.939046,-0.282512 -1.598371,-0.661925 -0.839202,-0.761883 -1.07418,-0.117382 -0.06064,-0.449486 -0.592147,-0.588521 0.1619,-0.449339 -0.787642,-0.546475 0.553266,-0.541214 -1.803708,-0.64715 2.714132,0.165151 3.390229,-0.286294 0.857054,-0.2635 -1.480487,-1.408792 -2.133572,-1.7994 -0.987468,-0.7113 -2.152227,-1.060495 -2.656105,-2.326644 -0.929079,-2.17703 1.470468,-3.241689 3.240255,-3.606649 1.153712,-0.550588 3.661489,0.843193 2.504977,1.593246 0.34459,1.77468 -4.869309,-0.232009 -2.529558,1.740973 1.778047,1.297855 4.582092,2.300704 4.663482,4.892626 -0.10985,1.329859 -1.04036,2.228962 -2.332884,1.857217 -0.795978,0.491595 -1.434086,-0.0511 -1.925786,0.238874 z m 1.369632,-0.207616 c -0.317761,-0.244661 -0.2286,0.262932 0,0 z m 0.198195,-0.0099 c -0.136227,-0.196848 -0.204309,0.190541 0,0 z M 16.188045,33.556614 c -1.871276,0.04104 -3.76943,-1.457658 -3.4964,-3.458241 0.55348,-2.698032 2.514381,-5.255821 5.192092,-6.106083 1.235804,-0.559655 3.757943,-0.65162 4.068309,1.205966 -0.724355,1.793313 -3.874421,-0.0416 -5.167698,1.853739 -1.360293,0.819917 -3.026783,4.102367 -0.122781,3.618231 2.267124,-0.118576 4.571384,-0.999885 6.720385,-1.187486 0.495818,1.058558 1.241529,-2.463888 1.604184,-3.414655 0.591908,-0.951309 0.663267,-2.237475 1.816727,-2.446067 1.929578,0.557451 1.949564,3.289476 3.045275,4.766232 0.598763,0.914639 1.70379,4.089807 1.329986,1.291846 0.632572,-1.81082 -2.055798,-4.057102 0.190587,-5.104437 2.001024,-0.995731 5.53658,-0.699048 5.840657,2.026479 -0.236208,1.474363 -1.487228,1.68535 -2.991455,2.34914 1.114405,0.725048 3.610606,0.921879 4.695508,0.698347 -0.3732,-1.395302 0.08035,-2.923304 -0.984518,-3.59185 -1.094418,-2.090051 2.184467,-2.262426 3.503632,-1.666611 2.549268,0.570993 4.350403,3.615917 3.217996,6.058129 -0.903392,1.765119 -3.319347,2.515097 -5.096604,2.233608 0.235016,-0.157059 -1.098033,-0.498212 -1.742657,-0.690939 -0.486202,0.64018 -3.869864,-0.81866 -4.262461,0.271761 -0.305785,1.192158 -1.644973,1.359633 -2.052183,0.200831 -0.455946,-0.164122 -1.034999,0.614503 -1.560583,0.542749 -0.937176,-1.339717 -1.342904,-2.9496 -3.223006,-1.88806 -1.050754,0.218745 -1.639699,2.915811 -2.968756,1.206828 -0.196399,-1.814782 -2.155367,0.307998 -3.091977,0.268861 -1.112961,0.57888 -2.523269,0.375245 -3.281923,0.832535 -0.398259,0.01519 -0.775816,0.265678 -1.182374,0.129147 z m 3.652713,-0.824194 c -0.210447,-0.111683 -0.04972,0.119768 0,0 z m 0.9976,-0.286769 c -0.06428,-0.194311 -0.131079,0.189322 0,0 z m 21.952586,-0.450054 c 0.134067,-0.35504 -0.452946,0.306407 0,0 z m -7.151323,-0.08308 c -0.258442,-0.309049 -0.36204,0.156827 0,0 z m 7.601004,-0.132483 c 0.131079,-0.437486 -0.379415,0.349435 0,0 z M 23.469104,31.218438 c -0.254023,-0.05639 -0.123911,0.338572 0,0 z m 0.09667,-0.517501 c -0.132799,-0.397454 -0.24536,0.463433 0,0 z m -0.726251,-0.287904 c -0.507569,-0.03818 0.138147,0.220872 0,0 z m 0.602969,-0.03195 c 0.913724,-0.604795 -1.384748,0.327036 0,0 z m -0.61118,-0.273873 c 0.09265,-0.180801 -0.466453,0.188119 0,0 z m 0.318879,-0.05314 c -0.135787,-0.19066 -0.135787,0.190661 0,0 z m 0.159439,-0.08286 c -0.165076,-0.19274 -0.100811,0.267613 0,0 z m 0.394254,-0.0025 c 0.33201,-0.401552 -0.533042,0.200915 0,0 z m 17.861528,-0.127171 c 2.591288,-0.479846 0.869558,-3.694959 -0.856954,-3.154213 0.224445,0.811672 -0.134004,3.058225 0.856954,3.154213 z M 27.412774,28.416077 c 0.03214,-1.9435 -0.995666,0.544859 0,0 z m 18.749805,5.092502 c 0.135775,-0.190661 0.135775,0.190659 0,0 z m -0.07972,-0.159439 c 0.135774,-0.190661 0.135774,0.190659 0,0 z M 21.422934,32.392505 c 0.131067,-0.189322 0.06428,0.194311 0,0 z M 45.843701,25.6486 c 0.162753,-0.272491 0.145378,0.161389 0,0 z M 4.8455193,22.340944 C 2.6102578,21.189085 3.4723214,17.976664 3.4402703,15.88571 3.6718714,13.88696 3.4599805,11.846181 3.8348257,9.8823363 5.2473687,9.0978443 6.2821664,11.346197 7.2529248,12.216416 8.2911122,13.443915 9.23631,16.218887 10.166066,16.48845 9.939914,13.337944 9.170237,10.130106 9.815991,6.9908698 c 0.428376,-1.3190928 2.581093,-0.025661 2.080919,1.284561 -0.374393,3.2783152 0.616791,6.4676542 0.740877,9.7434932 0.288648,1.314567 0.127376,3.321357 -1.529234,2.907012 C 9.72447,20.061885 8.7689274,18.808138 7.9115089,17.46735 7.2139061,16.50444 6.5292719,14.394234 5.7521128,14.232112 5.6939866,16.504128 4.9352697,19.000283 6.1088297,21.101126 6.397402,22.39904 4.762749,21.232407 5.0774091,22.213411 4.8813868,21.87621 4.9254146,22.610968 4.8455193,22.340944 Z M 26.713125,21.989101 c -1.5067,-1.296674 -0.853828,-3.560631 -1.097707,-5.312979 0.40937,-1.405394 -1.047892,-4.899047 1.20187,-4.786138 1.721667,0.502125 2.194535,3.784981 3.44499,3.787984 0.867136,-0.93679 1.506524,-3.012025 2.045856,-3.521311 -0.209631,0.299875 0.580584,-1.43436 0.516193,-2.108393 1.485044,-1.7850824 2.873219,1.553809 2.886677,2.893805 0.138851,1.03139 0.395033,4.758475 1.21273,1.912129 0.809411,-0.838465 1.097393,-2.821272 2.551666,-1.938211 1.978979,0.929935 3.574073,3.045537 3.343828,5.299056 -0.398284,1.808247 -2.38187,2.721823 -4.060701,2.890519 -1.208951,-0.448343 -2.031217,0.05997 -2.17072,0.740406 -1.518225,0.112361 -1.85655,-2.364789 -2.180739,-3.612158 -0.381323,-0.980434 -0.363533,-5.261118 -1.358384,-2.467077 -0.582756,1.559144 -2.242254,5.04569 -4.046427,2.724391 -0.730507,-1.09481 -1.444632,-1.917346 -1.110952,-0.03627 0.249052,1.035019 0.454791,3.857111 -1.008547,3.318743 l -0.0816,0.123257 z m 0.990808,-0.554716 c -0.102317,0.02305 0.0762,0.232962 0,0 z m 11.841922,-3.221178 c 2.69722,-0.590774 -0.754825,-4.843297 -1.212102,-1.533181 -0.41522,1.09133 -0.226692,2.207414 1.212102,1.533181 z m -1.248949,-5.112838 c -0.135786,-0.190661 -0.135786,0.19066 0,0 z m -5.686667,-1.620965 c -0.131757,-0.280027 -0.131757,0.280027 0,0 z m 12.143953,10.41327 c -1.718415,-1.396146 -0.933711,-3.931423 -1.094845,-5.857073 0.802092,-1.714196 -1.197149,-2.056395 -1.034898,-3.466953 1.263361,-0.932971 3.296147,-0.844102 4.884989,-0.717204 2.130409,-0.116604 3.803126,2.69326 1.610022,3.872843 -1.2522,0.38344 -4.343612,2.416526 -1.437752,2.831698 1.489865,0.05509 4.142806,0.975649 3.175337,-1.513332 -0.460415,-1.999722 0.395698,-4.194007 2.769496,-4.081568 1.474511,0.0439 3.836771,-1.035388 4.808722,-0.0055 0.45749,1.438515 -1.710255,1.911857 -3.113457,2.184163 -1.089861,-0.05083 -3.579334,1.219644 -0.96349,0.615426 1.30356,-0.436476 3.949346,-0.190656 2.911836,1.701398 -0.828719,1.129123 -3.316309,0.581447 -3.911557,1.606169 2.269346,-0.0072 4.589173,-0.599308 6.844735,-0.06132 0.419915,0.796659 -0.04695,0.489134 0.04469,1.327547 -0.826723,0.98695 -2.533889,0.683155 -3.83662,1.034088 -1.905323,0.721948 -3.790547,0.504556 -5.314132,-0.536764 -0.949065,0.45237 -2.364244,0.621132 -3.781495,0.437402 -1.504365,-0.640665 -1.27835,0.702715 -2.561609,0.628987 z m 1.43499,-7.636372 c 0.569423,-0.655411 -0.958104,0.287697 0,0 z m 13.090581,6.620279 c 0.232982,-0.07612 0.02298,0.102292 0,0 z M 15.550251,20.721677 c -1.986147,-0.364971 -2.7619,-2.648963 -2.402811,-4.442751 0.274085,-1.336085 0.358224,-3.890572 1.886617,-4.135191 2.198176,0.518669 3.692234,2.541349 4.148845,4.700833 0.71823,2.338781 -1.50331,4.001728 -3.632651,3.877109 z m 1.183315,-3.023739 c 1.272311,-1.067411 -1.571054,-4.620682 -1.358799,-1.587132 -0.267292,1.069149 -0.09365,2.345436 1.358799,1.587132 z"
     id="path3777"
     inkscape:connector-curvature="0" />
</svg>
