<?xml version="1.0" encoding="UTF-8" standalone="no"?><svg xmlns:dc="http://purl.org/dc/elements/1.1/" xmlns:cc="http://creativecommons.org/ns#" xmlns:rdf="http://www.w3.org/1999/02/22-rdf-syntax-ns#" xmlns:svg="http://www.w3.org/2000/svg" xmlns="http://www.w3.org/2000/svg" id="svg8" version="1.1" viewBox="0 0 63.122528 42.101059" height="42.101059mm" width="63.122528mm"><defs id="defs2" /><metadata id="metadata5"><rdf:RDF><cc:Work rdf:about=""><dc:format>image/svg+xml</dc:format><dc:type rdf:resource="http://purl.org/dc/dcmitype/StillImage" /><dc:title></dc:title></cc:Work></rdf:RDF></metadata><g transform="translate(-24.690679,-95.963973)" id="layer1"><g id="g904"><rect style="opacity:1;fill:#fffffa;fill-opacity:1;fill-rule:evenodd;stroke:none;stroke-width:0.66099995;stroke-linecap:butt;stroke-linejoin:bevel;stroke-miterlimit:4;stroke-dasharray:none;stroke-dashoffset:0;stroke-opacity:1;paint-order:normal" id="rect900" width="61.506641" height="40.527634" x="25.453552" y="96.679169" /><path style="fill:#000000;stroke-width:0.29203346" d="m 25.050958,137.69239 c -0.638029,-1.39809 -0.207275,-3.05577 -0.333643,-4.57348 0.01649,-12.01868 -0.03293,-24.03963 0.0247,-36.0569 0.452217,-1.624709 2.432318,-0.919171 3.683343,-1.074854 19.312522,0 38.625045,0 57.937567,0 1.913102,-0.02714 1.350834,2.155284 1.43362,3.404783 -0.01739,12.547061 0.03472,25.096231 -0.02606,37.641971 -0.365864,1.55925 -2.350334,0.83898 -3.530348,1.00606 -19.363065,0 -38.72613,0 -58.089195,0 -0.386096,-0.007 -0.802628,-0.0755 -1.099976,-0.34758 z M 86.27797,136.5214 c 0.516815,-7.08233 0.306632,-14.2094 0.378488,-21.31066 -0.08393,-5.89967 0.09476,-11.82382 -0.378488,-17.705014 -8.598595,-0.474589 -17.233018,-0.293343 -25.847134,-0.377941 -11.325905,0.04219 -22.660854,-0.10353 -33.97942,0.331769 -0.770563,2.092544 -0.329395,4.934366 -0.517485,7.339076 -0.07967,10.401 -0.216996,20.81232 0.212901,31.20668 1.642878,1.41501 5.221843,0.37411 7.598011,0.77674 17.131726,0.14787 34.269678,0.24719 51.398301,-0.1508 0.377693,-0.0328 0.765987,-0.008 1.134826,-0.10985 z m -14.854806,-5.14937 c -2.609289,-1.01906 -5.589265,0.17837 -8.351085,0.0916 -2.287227,0.0694 -5.717265,0.6789 -6.803537,-1.93729 -0.777253,-2.70606 -0.983237,-5.53885 -1.409981,-8.31343 0.701769,-2.25321 4.050341,-1.12457 5.945863,-1.51491 1.201651,-0.0364 2.403301,-0.0729 3.604952,-0.10932 1.138634,2.23791 -1.742666,2.71895 -3.396961,2.70084 -1.282464,0.0536 -5.047535,0.1653 -2.994001,1.85543 2.499451,0.0217 5.038579,-0.95123 7.498052,-0.38526 1.441514,2.9058 -3.510046,2.3895 -5.27285,2.95412 -2.003249,-0.33655 -2.973019,1.71053 -0.508759,1.9284 3.313297,0.0596 6.703076,0.0998 9.961364,-0.46733 -0.674774,-1.97075 0.959709,-5.53406 -2.134174,-5.9325 -0.938536,-2.94711 3.090124,-2.72027 4.953583,-2.65882 2.349443,0.35464 5.427996,-0.3447 7.124376,1.66372 1.559441,2.66072 -2.439862,3.60738 -4.290391,4.11453 -1.421932,0.0658 -3.900186,1.23223 -1.147332,1.6049 2.913038,0.96154 6.005408,1.39834 8.813665,2.65254 2.176111,2.28028 -1.675248,2.7123 -3.21048,1.75083 -2.160663,-0.295 -4.951771,-1.85953 -6.721929,-1.47963 0.10877,1.16738 -0.235222,2.80731 -1.660375,1.48163 z m 3.085853,-8.48168 c 0.681213,-0.25118 2.623848,-0.69132 0.842509,-0.5736 -1.231964,0.19366 -4.14152,-0.83909 -3.50951,1.26213 0.870218,0.12053 1.791743,-0.52404 2.667001,-0.68853 z m -43.154292,7.56811 c -3.202461,-0.34653 -3.005992,-4.51253 -1.376385,-6.41903 1.722088,-2.19121 3.837964,-4.14557 6.409528,-5.27804 2.144182,1.7741 5.026873,2.94461 6.213812,5.60356 1.234637,2.8452 -1.568157,4.97839 -4.130694,5.28468 -2.289612,0.72451 -4.713353,1.38395 -7.116261,0.80883 z m 6.980165,-3.25935 c 3.391754,-0.2108 2.201486,-3.38007 -0.0823,-4.34233 -2.267224,-2.13652 -4.712598,0.9366 -6.346103,2.43796 -2.997961,2.92064 2.340313,3.04382 4.2347,2.41943 0.740956,-0.12575 1.475104,-0.29453 2.193703,-0.51506 z m 10.328161,2.4449 c -2.017759,-2.68502 -3.949274,-5.51949 -5.255596,-8.61972 0.375384,-3.12469 2.599732,-0.49409 3.000114,1.13808 1.154257,1.59556 2.13876,4.02577 3.627461,4.95243 0.994348,-2.51037 1.3325,-5.26117 2.376836,-7.73958 2.470201,-1.74399 1.756449,3.21539 0.93574,4.46735 -1.107515,2.15555 -0.829242,6.3504 -3.576484,6.76895 -0.442705,-0.22533 -0.783465,-0.60162 -1.108071,-0.96751 z m -4.097999,-13.66526 c -0.77536,-0.93728 1.106601,-4.14817 -1.048895,-2.09716 -3.396493,1.46408 -7.251621,1.83672 -10.919502,1.54547 -2.656168,-0.071 -5.761562,-2.15429 -4.430115,-5.12665 1.066049,-3.28178 4.755661,-4.50108 7.571056,-5.89197 1.399188,-0.91613 4.607263,-1.92235 4.073443,0.8956 -2.778032,1.39432 -5.983814,2.14717 -8.477017,4.1675 -3.332307,2.05215 0.801644,4.03968 3.027745,3.58471 1.833562,0.085 6.155707,0.14696 6.619035,-1.05203 -1.513299,-0.91851 -6.489421,0.86456 -5.647014,-1.78195 1.929193,-1.83991 4.81308,-0.47137 7.121221,-0.40281 1.639196,0.39882 2.814973,2.53079 3.625512,-0.17634 1.448608,-1.31862 1.053983,-5.55287 3.172275,-5.10618 2.134994,2.86144 3.70624,6.1007 5.751526,9.0239 1.466727,2.89144 -1.996649,2.26095 -2.865692,0.29748 -1.641673,-0.60304 -3.461122,-0.38515 -5.186776,-0.57406 -0.226488,1.28379 -0.396811,4.27753 -2.386802,2.69449 z m 5.851206,-5.234 c -0.28008,-1.54804 -1.607673,-3.00979 -2.19011,-0.77372 -0.679593,0.98244 1.761701,0.93518 2.19011,0.77372 z m 21.466488,4.91497 c -1.641056,-2.79869 -1.570296,-6.241 -1.875922,-9.39369 -0.07783,-3.28957 4.33284,-1.54583 6.444314,-2.18095 1.4387,-0.0926 2.876988,-0.19142 4.315502,-0.28681 1.802894,2.37967 -1.393528,2.88887 -3.268553,2.74962 -1.77525,0.51263 -6.073467,-0.78914 -5.198176,2.22392 -0.131094,1.20197 1.475644,0.39151 2.203991,0.59823 1.656561,-0.0318 3.313121,-0.0635 4.969682,-0.0953 0.803253,2.5873 -2.85108,2.25927 -4.452864,2.59789 -1.630014,-0.43847 -2.992794,1.69257 -0.697765,1.57644 3.32717,0.28163 6.782928,-0.35086 10.022492,0.52578 1.371224,2.90117 -3.957015,1.74428 -5.629801,2.0585 -2.257055,-0.11277 -4.669481,0.33371 -6.8329,-0.37363 z m -15.395232,-0.13491 c -1.475061,-2.19001 -0.559687,-5.24996 -1.392234,-7.72959 -1.873898,-2.03128 1.355578,-5.18727 2.278158,-1.77941 1.165517,1.89815 4.13649,5.88593 6.050242,2.54597 1.308275,-1.16542 0.67594,-5.07715 2.757656,-4.54941 1.154507,3.3024 1.325372,6.88578 2.579761,10.15927 0.291347,3.42418 -2.868776,-0.085 -2.744901,-1.73686 -0.382308,-1.06202 -0.430877,-4.82168 -1.545605,-1.92888 -1.380061,2.61877 -5.146954,2.52145 -6.549994,-0.004 -0.640439,-0.82264 -0.01944,1.4323 -0.123994,1.91711 0.07694,1.01162 0.485185,3.65427 -1.309089,3.10618 z" id="path896" /></g></g></svg>
