<?xml version="1.0" encoding="UTF-8" standalone="no"?><svg xmlns:dc="http://purl.org/dc/elements/1.1/" xmlns:cc="http://creativecommons.org/ns#" xmlns:rdf="http://www.w3.org/1999/02/22-rdf-syntax-ns#" xmlns:svg="http://www.w3.org/2000/svg" xmlns="http://www.w3.org/2000/svg" width="92.707191mm" height="61.80479mm" viewBox="0 0 92.707192 61.80479" version="1.1" id="svg1223"><defs id="defs1217"><filter style="color-interpolation-filters:sRGB" id="filter1194-2" x="-0.035965789" width="1.0719316" y="-0.036034275" height="1.0720685"><feGaussianBlur stdDeviation="0.70359233" id="feGaussianBlur1196-7"/></filter><filter height="1.0720684" y="-0.036034206" width="1.0719317" x="-0.035965859" id="filter946" style="color-interpolation-filters:sRGB"><feGaussianBlur id="feGaussianBlur948" stdDeviation="3.2714649"/></filter></defs><metadata id="metadata1220"><rdf:RDF><cc:Work rdf:about=""><dc:format>image/svg+xml</dc:format><dc:type rdf:resource="http://purl.org/dc/dcmitype/StillImage"/><dc:title></dc:title></cc:Work></rdf:RDF></metadata><path id="rect818-7-3" transform="scale(0.26458334)" d="M 107.88281 7.8515625 L 66.042969 49.691406 L 133.30469 116.79492 L 66.042969 183.90039 L 107.88281 225.74219 L 175.19531 158.58789 L 241.67773 224.91211 L 283.51758 183.07227 L 217.08594 116.79688 L 284.34766 49.691406 L 242.50586 7.8515625 L 175.19531 75.003906 L 107.88281 7.8515625 z " style="opacity:1;fill:#000000;fill-opacity:1;fill-rule:evenodd;stroke:none;stroke-width:3.07555199;stroke-linecap:butt;stroke-linejoin:bevel;stroke-miterlimit:4;stroke-dasharray:none;stroke-dashoffset:0;stroke-opacity:1;paint-order:normal;filter:url(#filter946)"/><path id="rect818" transform="scale(0.26458334)" d="M 108.3457,15.730469 74.335938,49.740234 141.18359,116.58984 74.335938,183.4375 108.3457,217.44922 175.19531,150.59961 242.04297,217.44922 276.05469,183.4375 209.20508,116.58984 276.05469,49.740234 242.04297,15.730469 175.19531,82.578125 Z" style="opacity:1;fill:#ff0000;fill-opacity:1;fill-rule:evenodd;stroke:none;stroke-width:2.5;stroke-linecap:butt;stroke-linejoin:bevel;stroke-miterlimit:4;stroke-dasharray:none;stroke-dashoffset:0;stroke-opacity:1;paint-order:normal"/></svg>
